<svg width="50" height="93" viewBox="0 0 50 93" fill="none" xmlns="http://www.w3.org/2000/svg">
<path d="M1.59228 92.2756L1.59364 92.2761C1.79541 92.3591 1.98675 92.4 2.18382 92.4H46.9298C47.1363 92.4 47.3618 92.3552 47.5542 92.2761C47.7904 92.179 47.9562 92.0844 48.0771 91.9652C48.1963 91.8468 48.2916 91.6832 48.3878 91.4518L48.3884 91.4504C48.4676 91.2612 48.5124 91.0397 48.5124 90.8373V13.3487C48.5124 13.1463 48.4676 12.9248 48.3884 12.7356C48.2904 12.5016 48.1956 12.3382 48.0764 12.2202C47.9312 12.0763 47.7474 11.9548 47.5556 11.8765L47.5542 11.876C47.3988 11.8121 47.1894 11.786 46.9298 11.786H37.005H36.405V11.186V2.16266C36.405 1.96988 36.3643 1.78223 36.281 1.58355C36.2016 1.39397 36.08 1.21265 35.9345 1.06783C35.7893 0.924058 35.6056 0.802698 35.414 0.724444L35.4126 0.72389C35.2108 0.640921 35.0195 0.6 34.8224 0.6H14.3242C14.1272 0.6 13.9358 0.640924 13.7341 0.723883C13.5412 0.803189 13.3575 0.92442 13.2113 1.06865L1.59228 92.2756ZM1.59228 92.2756C1.35737 92.1796 1.19121 92.0845 1.07142 91.9658C0.926877 91.8226 0.804952 91.6408 0.725198 91.4504C0.645962 91.2612 0.601246 91.0397 0.601246 90.8373L0.6 13.3487C0.6 13.1463 0.644717 12.9248 0.723954 12.7356L0.724524 12.7343M1.59228 92.2756L0.724524 12.7343M0.724524 12.7343C0.802868 12.5459 0.924698 12.3645 1.06972 12.2207L0.724524 12.7343ZM45.193 65.5533L45.3468 65.3822V65.1522V15.5198C45.3468 15.1831 45.0739 14.9098 44.7368 14.9098H4.37632C4.0391 14.9098 3.76631 15.1832 3.76631 15.5198V88.6647C3.76631 89.0014 4.03925 89.2747 4.37631 89.2747L23.6017 89.2728L23.8691 89.2728L24.0478 89.0739L45.193 65.5533Z" fill="#1B1B1B" stroke="white" stroke-width="1.2"/>
<path d="M15.6348 4.5C15.6348 3.94772 16.0825 3.5 16.6348 3.5H32.8549C33.4072 3.5 33.8549 3.94772 33.8549 4.5V11.0743C33.8549 11.6266 33.4072 12.0743 32.8549 12.0743H16.6348C16.0825 12.0743 15.6348 11.6266 15.6348 11.0743V4.5Z" fill="white"/>
<path d="M45.95 65.5001L23 89.8701H44.95C45.5023 89.8701 45.95 89.4224 45.95 88.8701V65.5001Z" fill="white"/>
<path d="M44.8375 87.9912V36.1148C44.8375 35.3202 43.9556 34.843 43.2905 35.2777L5.15158 60.2006C4.87107 60.3839 4.70102 60.6956 4.69864 61.0306L4.50715 87.9841C4.50321 88.5392 4.95207 88.9912 5.50713 88.9912H43.8375C44.3898 88.9912 44.8375 88.5435 44.8375 87.9912Z" fill="#A4B8C1"/>
</svg>
