<svg width="107" height="93" viewBox="0 0 107 93" fill="none" xmlns="http://www.w3.org/2000/svg">
<circle cx="71.7992" cy="53.7999" r="15.1" fill="#A4B8C1"/>
<mask id="path-2-inside-1_359_12127" fill="white">
<path fill-rule="evenodd" clip-rule="evenodd" d="M69.7986 93H1.61918C0.724092 93 0 92.2749 0 91.3806V8.27877C0 7.38448 0.724282 6.65941 1.61937 6.65941L6.03538 6.65782V1.61937C6.03538 0.725071 6.75966 0 7.65475 0H57.9563C57.9762 0 57.9949 0.00542002 58.0136 0.0108289L58.0136 0.0108326L58.0136 0.0108348C58.0299 0.0155449 58.0461 0.0202452 58.0631 0.0213491C58.2054 0.0308386 58.3414 0.0577221 58.4758 0.103583C58.4894 0.108177 58.5029 0.112496 58.5162 0.116787L58.5163 0.11679L58.5163 0.116805L58.5165 0.116873L58.5166 0.1169L58.5166 0.116905C58.5538 0.128819 58.5903 0.140534 58.6268 0.157352C58.7992 0.235628 58.9637 0.335259 59.1029 0.474424L71.018 12.3903L76.9744 18.346C76.9748 18.3463 76.975 18.3467 76.9752 18.3471L76.9753 18.3474L76.976 18.3483L76.9791 18.3515C77.1191 18.4914 77.2187 18.6567 77.2978 18.8299C77.3097 18.8569 77.3186 18.8838 77.3275 18.911L77.3276 18.9113C77.3323 18.9255 77.3369 18.9397 77.3421 18.954C77.3966 19.1058 77.4275 19.2608 77.4354 19.4221C77.4358 19.4336 77.4389 19.4447 77.4421 19.4558C77.4454 19.4677 77.4488 19.4795 77.4488 19.4917V34.8686C80.5452 35.7983 83.3824 37.4835 85.7323 39.8334C89.4738 43.5735 91.5328 48.547 91.5328 53.8368C91.5328 58.5826 89.8645 63.066 86.8219 66.6408L88.2491 68.068L90.8094 65.5078C91.4165 64.9005 92.4919 64.9005 93.0991 65.5078L104.87 77.2775C106.165 78.5728 106.878 80.2957 106.878 82.1277C106.878 83.9598 106.163 85.682 104.868 86.9771C103.574 88.2723 101.852 88.9863 100.019 88.9863C98.1864 88.9863 96.4643 88.2731 95.1691 86.9771L83.4002 75.2082C82.7676 74.5757 82.7676 73.551 83.4002 72.9184L85.9598 70.3588L84.5326 68.9316C82.4387 70.7131 80.039 72.0288 77.4495 72.8061V84.7228C77.4495 85.6171 76.7252 86.3422 75.8301 86.3422H71.4179V91.3806C71.4179 92.2749 70.6936 93 69.7986 93ZM102.579 79.5669L91.9535 68.9423L86.8345 74.0629L97.4584 84.6868C98.828 86.0539 101.211 86.0555 102.577 84.6868C103.262 84.0029 103.639 83.0937 103.639 82.1266C103.639 81.1594 103.262 80.2509 102.579 79.5669ZM88.2942 53.837C88.2942 49.4123 86.572 45.2524 83.4423 42.1236C80.3127 38.9947 76.1536 37.2709 71.7288 37.2709C67.3041 37.2709 63.1434 38.9947 60.0154 42.1236C56.8857 45.2524 55.1635 49.4123 55.1635 53.837C55.1635 58.2618 56.8857 62.4225 60.0154 65.5513C63.1434 68.6802 67.3041 70.4032 71.7288 70.4032C76.1536 70.4032 80.3127 68.6802 83.4423 65.5513C86.572 62.4225 88.2942 58.2618 88.2942 53.837ZM68.2598 14.214L59.5769 5.53194V17.8796H71.9246L68.2598 14.214ZM9.27332 3.24034V8.27879L9.27311 83.1032H74.2097V73.4708C73.3913 73.5728 72.5658 73.6424 71.7284 73.6424C66.4386 73.6424 61.4651 71.5825 57.725 67.8418C53.9834 64.1009 51.9244 59.1274 51.9244 53.8375C51.9244 48.5476 53.9834 43.5742 57.725 39.834C61.4651 36.0933 66.4386 34.0327 71.7284 34.0327C72.5658 34.0327 73.3913 34.1022 74.2097 34.2042V21.1173H57.9575C57.0625 21.1173 56.3382 20.3923 56.3382 19.498V3.24034H9.27332ZM6.03458 9.89816H3.23713V89.7615H68.1778V86.3424H7.65395C6.75886 86.3424 6.03458 85.6173 6.03458 84.723V9.89816ZM40.2036 12.1794H13.9436C13.0485 12.1794 12.3242 11.4543 12.3242 10.56C12.3242 9.66574 13.0485 8.94067 13.9436 8.94067H40.2036C41.0987 8.94067 41.823 9.66574 41.823 10.56C41.823 11.4543 41.0987 12.1794 40.2036 12.1794ZM13.9436 19.7014H40.2036C41.0987 19.7014 41.823 18.9763 41.823 18.082C41.823 17.1877 41.0987 16.4626 40.2036 16.4626H13.9436C13.0485 16.4626 12.3242 17.1877 12.3242 18.082C12.3242 18.9763 13.0485 19.7014 13.9436 19.7014ZM52.78 38.3787H13.9436C13.0485 38.3787 12.3242 37.6537 12.3242 36.7594C12.3242 35.8651 13.0485 35.14 13.9436 35.14H52.78C53.6751 35.14 54.3994 35.8651 54.3994 36.7594C54.3994 37.6537 53.6751 38.3787 52.78 38.3787ZM13.9436 47.4411H47.6021C48.4972 47.4411 49.2215 46.7161 49.2215 45.8218C49.2215 44.9275 48.4972 44.2024 47.6021 44.2024H13.9436C13.0485 44.2024 12.3242 44.9275 12.3242 45.8218C12.3242 46.7161 13.0485 47.4411 13.9436 47.4411ZM47.6021 56.5035H13.9436C13.0485 56.5035 12.3242 55.7784 12.3242 54.8841C12.3242 53.9898 13.0485 53.2648 13.9436 53.2648H47.6021C48.4972 53.2648 49.2215 53.9898 49.2215 54.8841C49.2215 55.7784 48.4972 56.5035 47.6021 56.5035ZM13.9436 65.5639H47.6021C48.4972 65.5639 49.2215 64.8389 49.2215 63.9446C49.2215 63.0503 48.4972 62.3252 47.6021 62.3252H13.9436C13.0485 62.3252 12.3242 63.0503 12.3242 63.9446C12.3242 64.8389 13.0485 65.5639 13.9436 65.5639ZM13.9436 71.3876H52.78C53.6751 71.3876 54.3994 72.1126 54.3994 73.0069C54.3994 73.9012 53.6751 74.6263 52.78 74.6263H13.9436C13.0485 74.6263 12.3242 73.9012 12.3242 73.0069C12.3242 72.1126 13.0485 71.3876 13.9436 71.3876Z"/>
</mask>
<path fill-rule="evenodd" clip-rule="evenodd" d="M69.7986 93H1.61918C0.724092 93 0 92.2749 0 91.3806V8.27877C0 7.38448 0.724282 6.65941 1.61937 6.65941L6.03538 6.65782V1.61937C6.03538 0.725071 6.75966 0 7.65475 0H57.9563C57.9762 0 57.9949 0.00542002 58.0136 0.0108289L58.0136 0.0108326L58.0136 0.0108348C58.0299 0.0155449 58.0461 0.0202452 58.0631 0.0213491C58.2054 0.0308386 58.3414 0.0577221 58.4758 0.103583C58.4894 0.108177 58.5029 0.112496 58.5162 0.116787L58.5163 0.11679L58.5163 0.116805L58.5165 0.116873L58.5166 0.1169L58.5166 0.116905C58.5538 0.128819 58.5903 0.140534 58.6268 0.157352C58.7992 0.235628 58.9637 0.335259 59.1029 0.474424L71.018 12.3903L76.9744 18.346C76.9748 18.3463 76.975 18.3467 76.9752 18.3471L76.9753 18.3474L76.976 18.3483L76.9791 18.3515C77.1191 18.4914 77.2187 18.6567 77.2978 18.8299C77.3097 18.8569 77.3186 18.8838 77.3275 18.911L77.3276 18.9113C77.3323 18.9255 77.3369 18.9397 77.3421 18.954C77.3966 19.1058 77.4275 19.2608 77.4354 19.4221C77.4358 19.4336 77.4389 19.4447 77.4421 19.4558C77.4454 19.4677 77.4488 19.4795 77.4488 19.4917V34.8686C80.5452 35.7983 83.3824 37.4835 85.7323 39.8334C89.4738 43.5735 91.5328 48.547 91.5328 53.8368C91.5328 58.5826 89.8645 63.066 86.8219 66.6408L88.2491 68.068L90.8094 65.5078C91.4165 64.9005 92.4919 64.9005 93.0991 65.5078L104.87 77.2775C106.165 78.5728 106.878 80.2957 106.878 82.1277C106.878 83.9598 106.163 85.682 104.868 86.9771C103.574 88.2723 101.852 88.9863 100.019 88.9863C98.1864 88.9863 96.4643 88.2731 95.1691 86.9771L83.4002 75.2082C82.7676 74.5757 82.7676 73.551 83.4002 72.9184L85.9598 70.3588L84.5326 68.9316C82.4387 70.7131 80.039 72.0288 77.4495 72.8061V84.7228C77.4495 85.6171 76.7252 86.3422 75.8301 86.3422H71.4179V91.3806C71.4179 92.2749 70.6936 93 69.7986 93ZM102.579 79.5669L91.9535 68.9423L86.8345 74.0629L97.4584 84.6868C98.828 86.0539 101.211 86.0555 102.577 84.6868C103.262 84.0029 103.639 83.0937 103.639 82.1266C103.639 81.1594 103.262 80.2509 102.579 79.5669ZM88.2942 53.837C88.2942 49.4123 86.572 45.2524 83.4423 42.1236C80.3127 38.9947 76.1536 37.2709 71.7288 37.2709C67.3041 37.2709 63.1434 38.9947 60.0154 42.1236C56.8857 45.2524 55.1635 49.4123 55.1635 53.837C55.1635 58.2618 56.8857 62.4225 60.0154 65.5513C63.1434 68.6802 67.3041 70.4032 71.7288 70.4032C76.1536 70.4032 80.3127 68.6802 83.4423 65.5513C86.572 62.4225 88.2942 58.2618 88.2942 53.837ZM68.2598 14.214L59.5769 5.53194V17.8796H71.9246L68.2598 14.214ZM9.27332 3.24034V8.27879L9.27311 83.1032H74.2097V73.4708C73.3913 73.5728 72.5658 73.6424 71.7284 73.6424C66.4386 73.6424 61.4651 71.5825 57.725 67.8418C53.9834 64.1009 51.9244 59.1274 51.9244 53.8375C51.9244 48.5476 53.9834 43.5742 57.725 39.834C61.4651 36.0933 66.4386 34.0327 71.7284 34.0327C72.5658 34.0327 73.3913 34.1022 74.2097 34.2042V21.1173H57.9575C57.0625 21.1173 56.3382 20.3923 56.3382 19.498V3.24034H9.27332ZM6.03458 9.89816H3.23713V89.7615H68.1778V86.3424H7.65395C6.75886 86.3424 6.03458 85.6173 6.03458 84.723V9.89816ZM40.2036 12.1794H13.9436C13.0485 12.1794 12.3242 11.4543 12.3242 10.56C12.3242 9.66574 13.0485 8.94067 13.9436 8.94067H40.2036C41.0987 8.94067 41.823 9.66574 41.823 10.56C41.823 11.4543 41.0987 12.1794 40.2036 12.1794ZM13.9436 19.7014H40.2036C41.0987 19.7014 41.823 18.9763 41.823 18.082C41.823 17.1877 41.0987 16.4626 40.2036 16.4626H13.9436C13.0485 16.4626 12.3242 17.1877 12.3242 18.082C12.3242 18.9763 13.0485 19.7014 13.9436 19.7014ZM52.78 38.3787H13.9436C13.0485 38.3787 12.3242 37.6537 12.3242 36.7594C12.3242 35.8651 13.0485 35.14 13.9436 35.14H52.78C53.6751 35.14 54.3994 35.8651 54.3994 36.7594C54.3994 37.6537 53.6751 38.3787 52.78 38.3787ZM13.9436 47.4411H47.6021C48.4972 47.4411 49.2215 46.7161 49.2215 45.8218C49.2215 44.9275 48.4972 44.2024 47.6021 44.2024H13.9436C13.0485 44.2024 12.3242 44.9275 12.3242 45.8218C12.3242 46.7161 13.0485 47.4411 13.9436 47.4411ZM47.6021 56.5035H13.9436C13.0485 56.5035 12.3242 55.7784 12.3242 54.8841C12.3242 53.9898 13.0485 53.2648 13.9436 53.2648H47.6021C48.4972 53.2648 49.2215 53.9898 49.2215 54.8841C49.2215 55.7784 48.4972 56.5035 47.6021 56.5035ZM13.9436 65.5639H47.6021C48.4972 65.5639 49.2215 64.8389 49.2215 63.9446C49.2215 63.0503 48.4972 62.3252 47.6021 62.3252H13.9436C13.0485 62.3252 12.3242 63.0503 12.3242 63.9446C12.3242 64.8389 13.0485 65.5639 13.9436 65.5639ZM13.9436 71.3876H52.78C53.6751 71.3876 54.3994 72.1126 54.3994 73.0069C54.3994 73.9012 53.6751 74.6263 52.78 74.6263H13.9436C13.0485 74.6263 12.3242 73.9012 12.3242 73.0069C12.3242 72.1126 13.0485 71.3876 13.9436 71.3876Z" fill="#1B1B1B"/>
<path d="M1.61937 6.65941L1.61937 7.05941L1.61951 7.05941L1.61937 6.65941ZM6.03538 6.65782L6.03552 7.05782L6.43538 7.05768V6.65782H6.03538ZM58.0136 0.0108289L58.1346 -0.370555L58.1248 -0.373407L58.0136 0.0108289ZM58.0136 0.0108326L57.8926 0.392091L57.9151 0.399237L57.9383 0.403683L58.0136 0.0108326ZM58.0136 0.0108348L58.1248 -0.373395L58.1071 -0.378535L58.0889 -0.382016L58.0136 0.0108348ZM58.0631 0.0213491L58.0897 -0.377765L58.0891 -0.377803L58.0631 0.0213491ZM58.4758 0.103583L58.3467 0.482157L58.3476 0.48246L58.4758 0.103583ZM58.5162 0.116787L58.3941 0.497685L58.4101 0.502804L58.4264 0.50657L58.5162 0.116787ZM58.5163 0.11679L58.6398 -0.263656L58.6231 -0.269061L58.6061 -0.272992L58.5163 0.11679ZM58.5163 0.116805L58.3928 0.497271L58.3966 0.498474L58.5163 0.116805ZM58.5165 0.116873L58.6455 -0.2619L58.6362 -0.264796L58.5165 0.116873ZM58.5166 0.1169L58.6671 -0.253686L58.6564 -0.258037L58.6455 -0.261762L58.5166 0.1169ZM58.5166 0.116905L58.3661 0.487492L58.3801 0.493186L58.3945 0.497806L58.5166 0.116905ZM58.6268 0.157352L58.4596 0.520711L58.4615 0.521562L58.6268 0.157352ZM59.1029 0.474424L59.3857 0.191591L59.3857 0.191581L59.1029 0.474424ZM71.018 12.3903L70.7351 12.6732L70.7351 12.6732L71.018 12.3903ZM76.9744 18.346L77.2579 18.0638L77.2572 18.0631L76.9744 18.346ZM76.9752 18.3471L76.6185 18.5281L76.6189 18.529L76.9752 18.3471ZM76.9753 18.3474L76.6191 18.5293L76.6325 18.5556L76.6496 18.5796L76.9753 18.3474ZM76.976 18.3483L76.6503 18.5806L76.6697 18.6077L76.6933 18.6313L76.976 18.3483ZM76.9791 18.3515L77.262 18.0687L77.2618 18.0685L76.9791 18.3515ZM77.2978 18.8299L77.6636 18.6681L77.6616 18.6637L77.2978 18.8299ZM77.3275 18.911L76.9475 19.0358L76.9499 19.0432L76.9526 19.0505L77.3275 18.911ZM77.3276 18.9113L77.7076 18.7865L77.7052 18.7791L77.7025 18.7718L77.3276 18.9113ZM77.3421 18.954L76.9655 19.089L76.9656 19.0893L77.3421 18.954ZM77.4354 19.4221L77.8352 19.4088L77.8349 19.4025L77.4354 19.4221ZM77.4421 19.4558L77.8268 19.3463L77.8268 19.3462L77.4421 19.4558ZM77.4488 34.8686H77.0488V35.1661L77.3338 35.2517L77.4488 34.8686ZM85.7323 39.8334L85.4494 40.1162L85.4495 40.1163L85.7323 39.8334ZM86.8219 66.6408L86.5173 66.3815L86.2781 66.6626L86.5391 66.9236L86.8219 66.6408ZM88.2491 68.068L87.9663 68.3508L88.2491 68.6337L88.532 68.3508L88.2491 68.068ZM90.8094 65.5078L91.0922 65.7906L91.0922 65.7906L90.8094 65.5078ZM93.0991 65.5078L92.8163 65.7906L92.8163 65.7906L93.0991 65.5078ZM104.87 77.2775L105.152 76.9947L105.152 76.9947L104.87 77.2775ZM104.868 86.9771L104.585 86.6943L104.585 86.6945L104.868 86.9771ZM95.1691 86.9771L95.4521 86.6944L95.452 86.6943L95.1691 86.9771ZM83.4002 75.2082L83.683 74.9253L83.683 74.9253L83.4002 75.2082ZM83.4002 72.9184L83.1173 72.6356L83.1173 72.6356L83.4002 72.9184ZM85.9598 70.3588L86.2426 70.6416L86.5255 70.3588L86.2426 70.0759L85.9598 70.3588ZM84.5326 68.9316L84.8154 68.6487L84.5544 68.3877L84.2734 68.6269L84.5326 68.9316ZM77.4495 72.8061L77.3345 72.423L77.0495 72.5085V72.8061H77.4495ZM71.4179 86.3422V85.9422H71.0179V86.3422H71.4179ZM91.9535 68.9423L92.2364 68.6594L91.9535 68.3766L91.6706 68.6595L91.9535 68.9423ZM102.579 79.5669L102.862 79.2843L102.862 79.2841L102.579 79.5669ZM86.8345 74.0629L86.5517 73.7801L86.2689 74.063L86.5517 74.3458L86.8345 74.0629ZM97.4584 84.6868L97.1756 84.9696L97.1758 84.9699L97.4584 84.6868ZM102.577 84.6868L102.295 84.4038L102.294 84.4042L102.577 84.6868ZM83.4423 42.1236L83.1595 42.4064L83.1595 42.4064L83.4423 42.1236ZM60.0154 42.1236L60.2982 42.4064L60.2982 42.4064L60.0154 42.1236ZM60.0154 65.5513L60.2982 65.2685L60.2982 65.2685L60.0154 65.5513ZM83.4423 65.5513L83.1595 65.2684L83.1595 65.2685L83.4423 65.5513ZM59.5769 5.53194L59.8597 5.24909L59.1769 4.56632V5.53194H59.5769ZM68.2598 14.214L68.5426 13.9312L68.5426 13.9311L68.2598 14.214ZM59.5769 17.8796H59.1769V18.2796H59.5769V17.8796ZM71.9246 17.8796V18.2796H72.8901L72.2075 17.5968L71.9246 17.8796ZM9.27332 8.27879L9.67332 8.27879V8.27879H9.27332ZM9.27332 3.24034V2.84034H8.87332V3.24034H9.27332ZM9.27311 83.1032L8.87311 83.1032L8.87311 83.5032H9.27311V83.1032ZM74.2097 83.1032V83.5032H74.6097V83.1032H74.2097ZM74.2097 73.4708H74.6097V73.0178L74.1602 73.0739L74.2097 73.4708ZM57.725 67.8418L58.0078 67.559L58.0078 67.5589L57.725 67.8418ZM57.725 39.834L58.0078 40.1169L58.0078 40.1169L57.725 39.834ZM74.2097 34.2042L74.1602 34.6012L74.6097 34.6572V34.2042H74.2097ZM74.2097 21.1173H74.6097V20.7173H74.2097V21.1173ZM56.3382 3.24034H56.7382V2.84034H56.3382V3.24034ZM3.23713 9.89816V9.49816H2.83713V9.89816H3.23713ZM6.03458 9.89816H6.43458V9.49816H6.03458V9.89816ZM3.23713 89.7615H2.83713V90.1615H3.23713V89.7615ZM68.1778 89.7615V90.1615H68.5778V89.7615H68.1778ZM68.1778 86.3424H68.5778V85.9424H68.1778V86.3424ZM1.61918 93.4H69.7986V92.6H1.61918V93.4ZM-0.4 91.3806C-0.4 92.4956 0.502984 93.4 1.61918 93.4V92.6C0.9452 92.6 0.4 92.0542 0.4 91.3806H-0.4ZM-0.4 8.27877V91.3806H0.4V8.27877H-0.4ZM1.61937 6.25941C0.503241 6.25941 -0.4 7.16369 -0.4 8.27877H0.4C0.4 7.60526 0.945323 7.05941 1.61937 7.05941V6.25941ZM6.03524 6.25782L1.61922 6.25941L1.61951 7.05941L6.03552 7.05782L6.03524 6.25782ZM5.63538 1.61937V6.65782H6.43538V1.61937H5.63538ZM7.65475 -0.4C6.53862 -0.4 5.63538 0.504284 5.63538 1.61937H6.43538C6.43538 0.945858 6.9807 0.4 7.65475 0.4V-0.4ZM57.9563 -0.4H7.65475V0.4H57.9563V-0.4ZM58.1248 -0.373407C58.1149 -0.37627 58.0421 -0.4 57.9563 -0.4V0.4C57.93 0.4 57.9104 0.396397 57.9018 0.394549C57.8974 0.393622 57.8949 0.392917 57.8952 0.393003C57.8959 0.393192 57.8972 0.393548 57.9024 0.395065L58.1248 -0.373407ZM58.1346 -0.370426L58.1346 -0.370429L57.8926 0.392087L57.8926 0.392091L58.1346 -0.370426ZM58.0889 -0.382016L58.0889 -0.382018L57.9383 0.403683L57.9383 0.403685L58.0889 -0.382016ZM58.0891 -0.377803C58.1088 -0.376519 58.123 -0.37349 58.1284 -0.372236C58.1312 -0.371589 58.1326 -0.371176 58.1319 -0.371384C58.1308 -0.37167 58.1293 -0.372091 58.1248 -0.373395L57.9024 0.395064C57.9116 0.397716 57.9695 0.416096 58.037 0.420501L58.0891 -0.377803ZM58.605 -0.274991C58.4367 -0.332398 58.2662 -0.365997 58.0897 -0.377765L58.0365 0.420463C58.1446 0.427674 58.2461 0.447842 58.3467 0.482156L58.605 -0.274991ZM58.6384 -0.26411C58.6245 -0.268554 58.6141 -0.271903 58.6041 -0.275295L58.3476 0.48246C58.3647 0.488258 58.3812 0.493547 58.3941 0.497685L58.6384 -0.26411ZM58.6061 -0.272992L58.6061 -0.272995L58.4264 0.50657L58.4264 0.506572L58.6061 -0.272992ZM58.6398 -0.263641L58.6398 -0.263656L58.3927 0.497236L58.3928 0.497251L58.6398 -0.263641ZM58.6362 -0.264796L58.636 -0.264864L58.3966 0.498474L58.3968 0.498542L58.6362 -0.264796ZM58.6455 -0.261762L58.6454 -0.26179L58.3876 0.495536L58.3877 0.495563L58.6455 -0.261762ZM58.6672 -0.253682L58.6671 -0.253686L58.366 0.487487L58.3661 0.487492L58.6672 -0.253682ZM58.7941 -0.206002C58.7321 -0.234545 58.6727 -0.253097 58.6387 -0.263996L58.3945 0.497806C58.4348 0.510735 58.4485 0.515613 58.4596 0.520706L58.7941 -0.206002ZM59.3857 0.191581C59.2024 0.00823078 58.9929 -0.115753 58.7922 -0.206858L58.4615 0.521562C58.6056 0.587009 58.725 0.662288 58.82 0.757266L59.3857 0.191581ZM71.3008 12.1075L59.3857 0.191591L58.82 0.757257L70.7351 12.6732L71.3008 12.1075ZM77.2572 18.0631L71.3008 12.1075L70.7351 12.6732L76.6916 18.6288L77.2572 18.0631ZM77.3319 18.1662C77.3342 18.1707 77.3089 18.1151 77.2579 18.0638L76.6909 18.6281C76.6406 18.5776 76.6158 18.5228 76.6185 18.5281L77.3319 18.1662ZM77.3316 18.1655L77.3314 18.1652L76.6189 18.529L76.6191 18.5293L77.3316 18.1655ZM77.3016 18.1161L77.301 18.1152L76.6496 18.5796L76.6503 18.5806L77.3016 18.1161ZM77.2618 18.0685L77.2586 18.0653L76.6933 18.6313L76.6965 18.6345L77.2618 18.0685ZM77.6616 18.6637C77.5702 18.4635 77.4464 18.2531 77.262 18.0687L76.6963 18.6343C76.7918 18.7298 76.8672 18.8499 76.9339 18.996L77.6616 18.6637ZM77.7076 18.7863C77.6995 18.7617 77.6848 18.7161 77.6636 18.6681L76.932 18.9917C76.9346 18.9976 76.9377 19.0059 76.9475 19.0358L77.7076 18.7863ZM77.7025 18.7718L77.7024 18.7715L76.9526 19.0505L76.9527 19.0508L77.7025 18.7718ZM77.7186 18.819C77.7156 18.8106 77.7126 18.8015 77.7076 18.7865L76.9476 19.0361C76.9519 19.0494 76.9583 19.0687 76.9655 19.089L77.7186 18.819ZM77.8349 19.4025C77.8251 19.2019 77.7865 19.0079 77.7185 18.8187L76.9656 19.0893C77.0068 19.2037 77.0299 19.3197 77.0359 19.4417L77.8349 19.4025ZM77.8268 19.3462C77.8246 19.3387 77.8265 19.3448 77.8283 19.3531C77.8305 19.3627 77.8343 19.3826 77.8352 19.4088L77.0356 19.4354C77.0379 19.5042 77.0566 19.5626 77.0574 19.5655L77.8268 19.3462ZM77.8488 19.4917C77.8488 19.4142 77.8274 19.3484 77.8268 19.3463L77.0574 19.5653C77.0597 19.5736 77.0575 19.5662 77.0554 19.5565C77.053 19.545 77.0488 19.5219 77.0488 19.4917H77.8488ZM77.8488 34.8686V19.4917H77.0488V34.8686H77.8488ZM86.0151 39.5505C83.6186 37.154 80.7238 35.4343 77.5638 34.4855L77.3338 35.2517C80.3666 36.1623 83.1462 37.8129 85.4494 40.1162L86.0151 39.5505ZM91.9328 53.8368C91.9328 48.4409 89.8317 43.3657 86.0151 39.5505L85.4495 40.1163C89.1159 43.7813 91.1328 48.653 91.1328 53.8368H91.9328ZM87.1265 66.9C90.2303 63.2533 91.9328 58.6781 91.9328 53.8368H91.1328C91.1328 58.4871 89.4987 62.8787 86.5173 66.3815L87.1265 66.9ZM88.532 67.7852L87.1048 66.3579L86.5391 66.9236L87.9663 68.3508L88.532 67.7852ZM90.5265 65.2249L87.9663 67.7852L88.532 68.3508L91.0922 65.7906L90.5265 65.2249ZM93.382 65.2249C92.6185 64.4615 91.2899 64.4614 90.5265 65.2249L91.0922 65.7906C91.5432 65.3396 92.3652 65.3395 92.8163 65.7906L93.382 65.2249ZM105.152 76.9947L93.382 65.2249L92.8163 65.7906L104.587 77.5604L105.152 76.9947ZM107.278 82.1277C107.278 80.1897 106.523 78.3651 105.152 76.9947L104.587 77.5604C105.807 78.7806 106.478 80.4017 106.478 82.1277H107.278ZM105.151 87.26C106.521 85.8899 107.278 84.0661 107.278 82.1277H106.478C106.478 83.8536 105.805 85.474 104.585 86.6943L105.151 87.26ZM100.019 89.3863C101.958 89.3863 103.782 88.6302 105.151 87.2598L104.585 86.6945C103.366 87.9145 101.746 88.5863 100.019 88.5863V89.3863ZM94.8862 87.2599C96.2565 88.631 98.0804 89.3863 100.019 89.3863V88.5863C98.2925 88.5863 96.6722 87.9152 95.4521 86.6944L94.8862 87.2599ZM83.1173 75.491L94.8863 87.26L95.452 86.6943L83.683 74.9253L83.1173 75.491ZM83.1173 72.6356C82.3286 73.4243 82.3286 74.7024 83.1174 75.491L83.683 74.9253C83.2067 74.4491 83.2067 73.6776 83.683 73.2012L83.1173 72.6356ZM85.6769 70.0759L83.1173 72.6356L83.683 73.2012L86.2426 70.6416L85.6769 70.0759ZM84.2497 69.2144L85.677 70.6416L86.2426 70.0759L84.8154 68.6487L84.2497 69.2144ZM77.5645 73.1892C80.2083 72.3957 82.6569 71.0527 84.7918 69.2362L84.2734 68.6269C82.2206 70.3735 79.8698 71.662 77.3345 72.423L77.5645 73.1892ZM77.8495 84.7228V72.8061H77.0495V84.7228H77.8495ZM75.8301 86.7422C76.9462 86.7422 77.8495 85.8379 77.8495 84.7228H77.0495C77.0495 85.3963 76.5041 85.9422 75.8301 85.9422V86.7422ZM71.4179 86.7422H75.8301V85.9422H71.4179V86.7422ZM71.8179 91.3806V86.3422H71.0179V91.3806H71.8179ZM69.7986 93.4C70.9147 93.4 71.8179 92.4957 71.8179 91.3806H71.0179C71.0179 92.0541 70.4726 92.6 69.7986 92.6V93.4ZM91.6707 69.2251L102.296 79.8498L102.862 79.2841L92.2364 68.6594L91.6707 69.2251ZM87.1174 74.3457L92.2364 69.2251L91.6706 68.6595L86.5517 73.7801L87.1174 74.3457ZM97.7412 84.4039L87.1174 73.7801L86.5517 74.3458L97.1756 84.9696L97.7412 84.4039ZM102.294 84.4042C101.085 85.616 98.9548 85.6153 97.741 84.4037L97.1758 84.9699C98.7011 86.4925 101.338 86.495 102.861 84.9694L102.294 84.4042ZM103.239 82.1266C103.239 82.9876 102.904 83.795 102.295 84.4038L102.86 84.9698C103.62 84.2108 104.039 83.1997 104.039 82.1266H103.239ZM102.296 79.8496C102.904 80.4586 103.239 81.2655 103.239 82.1266H104.039C104.039 81.0534 103.62 80.0432 102.862 79.2843L102.296 79.8496ZM83.1595 42.4064C86.2141 45.4602 87.8942 49.5184 87.8942 53.837H88.6942C88.6942 49.3063 86.9299 45.0446 83.7251 41.8407L83.1595 42.4064ZM71.7288 37.6709C76.0474 37.6709 80.1048 39.3525 83.1595 42.4064L83.7251 41.8407C80.5206 38.6368 76.2597 36.8709 71.7288 36.8709V37.6709ZM60.2982 42.4064C63.3512 39.3526 67.4102 37.6709 71.7288 37.6709V36.8709C67.198 36.8709 62.9355 38.6369 59.7325 41.8407L60.2982 42.4064ZM55.5635 53.837C55.5635 49.5184 57.2436 45.4602 60.2982 42.4064L59.7326 41.8407C56.5278 45.0446 54.7635 49.3063 54.7635 53.837H55.5635ZM60.2982 65.2685C57.2436 62.2147 55.5635 58.1557 55.5635 53.837H54.7635C54.7635 58.3678 56.5278 62.6303 59.7326 65.8342L60.2982 65.2685ZM71.7288 70.0032C67.4102 70.0032 63.3512 68.3223 60.2982 65.2685L59.7325 65.8341C62.9355 69.0381 67.1981 70.8032 71.7288 70.8032V70.0032ZM83.1595 65.2685C80.1049 68.3223 76.0474 70.0032 71.7288 70.0032V70.8032C76.2597 70.8032 80.5205 69.038 83.7251 65.8342L83.1595 65.2685ZM87.8942 53.837C87.8942 58.1557 86.2141 62.2147 83.1595 65.2684L83.7251 65.8342C86.9299 62.6303 88.6942 58.3678 88.6942 53.837H87.8942ZM59.2941 5.8148L67.9769 14.4968L68.5426 13.9311L59.8597 5.24909L59.2941 5.8148ZM59.9769 17.8796V5.53194H59.1769V17.8796H59.9769ZM71.9246 17.4796H59.5769V18.2796H71.9246V17.4796ZM67.9769 14.4968L71.6417 18.1624L72.2075 17.5968L68.5426 13.9312L67.9769 14.4968ZM9.67332 8.27879V3.24034H8.87332V8.27879H9.67332ZM9.67311 83.1032L9.67332 8.27879L8.87332 8.27879L8.87311 83.1032L9.67311 83.1032ZM74.2097 82.7032H9.27311V83.5032H74.2097V82.7032ZM73.8097 73.4708V83.1032H74.6097V73.4708H73.8097ZM71.7284 74.0424C72.5876 74.0424 73.4306 73.971 74.2592 73.8677L74.1602 73.0739C73.352 73.1746 72.544 73.2424 71.7284 73.2424V74.0424ZM57.4421 68.1246C61.2573 71.9404 66.3325 74.0424 71.7284 74.0424V73.2424C66.5446 73.2424 61.6729 71.2247 58.0078 67.559L57.4421 68.1246ZM51.5244 53.8375C51.5244 59.2334 53.6255 64.3087 57.4421 68.1247L58.0078 67.5589C54.3413 63.893 52.3244 59.0213 52.3244 53.8375H51.5244ZM57.4422 39.5511C53.6255 43.3664 51.5244 48.4416 51.5244 53.8375H52.3244C52.3244 48.6537 54.3413 43.782 58.0078 40.1169L57.4422 39.5511ZM71.7284 33.6327C66.3325 33.6327 61.2572 35.7355 57.4421 39.5512L58.0078 40.1169C61.673 36.4511 66.5447 34.4327 71.7284 34.4327V33.6327ZM74.2592 33.8073C73.4306 33.704 72.5876 33.6327 71.7284 33.6327V34.4327C72.544 34.4327 73.352 34.5004 74.1602 34.6012L74.2592 33.8073ZM73.8097 21.1173V34.2042H74.6097V21.1173H73.8097ZM57.9575 21.5173H74.2097V20.7173H57.9575V21.5173ZM55.9382 19.498C55.9382 20.6131 56.8414 21.5173 57.9575 21.5173V20.7173C57.2835 20.7173 56.7382 20.1715 56.7382 19.498H55.9382ZM55.9382 3.24034V19.498H56.7382V3.24034H55.9382ZM9.27332 3.64034H56.3382V2.84034H9.27332V3.64034ZM3.23713 10.2982H6.03458V9.49816H3.23713V10.2982ZM3.63713 89.7615V9.89816H2.83713V89.7615H3.63713ZM68.1778 89.3615H3.23713V90.1615H68.1778V89.3615ZM67.7778 86.3424V89.7615H68.5778V86.3424H67.7778ZM7.65395 86.7424H68.1778V85.9424H7.65395V86.7424ZM5.63458 84.723C5.63458 85.8381 6.53783 86.7424 7.65395 86.7424V85.9424C6.9799 85.9424 6.43458 85.3965 6.43458 84.723H5.63458ZM5.63458 9.89816V84.723H6.43458V9.89816H5.63458ZM13.9436 12.5794H40.2036V11.7794H13.9436V12.5794ZM11.9242 10.56C11.9242 11.6751 12.8275 12.5794 13.9436 12.5794V11.7794C13.2695 11.7794 12.7242 11.2335 12.7242 10.56H11.9242ZM13.9436 8.54067C12.8275 8.54067 11.9242 9.44496 11.9242 10.56H12.7242C12.7242 9.88653 13.2695 9.34067 13.9436 9.34067V8.54067ZM40.2036 8.54067H13.9436V9.34067H40.2036V8.54067ZM42.223 10.56C42.223 9.44496 41.3198 8.54067 40.2036 8.54067V9.34067C40.8777 9.34067 41.423 9.88653 41.423 10.56H42.223ZM40.2036 12.5794C41.3198 12.5794 42.223 11.6751 42.223 10.56H41.423C41.423 11.2335 40.8777 11.7794 40.2036 11.7794V12.5794ZM40.2036 19.3014H13.9436V20.1014H40.2036V19.3014ZM41.423 18.082C41.423 18.7555 40.8777 19.3014 40.2036 19.3014V20.1014C41.3198 20.1014 42.223 19.1971 42.223 18.082H41.423ZM40.2036 16.8626C40.8777 16.8626 41.423 17.4085 41.423 18.082H42.223C42.223 16.9669 41.3198 16.0626 40.2036 16.0626V16.8626ZM13.9436 16.8626H40.2036V16.0626H13.9436V16.8626ZM12.7242 18.082C12.7242 17.4085 13.2695 16.8626 13.9436 16.8626V16.0626C12.8275 16.0626 11.9242 16.9669 11.9242 18.082H12.7242ZM13.9436 19.3014C13.2695 19.3014 12.7242 18.7555 12.7242 18.082H11.9242C11.9242 19.1971 12.8275 20.1014 13.9436 20.1014V19.3014ZM13.9436 38.7787H52.78V37.9787H13.9436V38.7787ZM11.9242 36.7594C11.9242 37.8745 12.8275 38.7787 13.9436 38.7787V37.9787C13.2695 37.9787 12.7242 37.4329 12.7242 36.7594H11.9242ZM13.9436 34.74C12.8275 34.74 11.9242 35.6443 11.9242 36.7594H12.7242C12.7242 36.0859 13.2695 35.54 13.9436 35.54V34.74ZM52.78 34.74H13.9436V35.54H52.78V34.74ZM54.7994 36.7594C54.7994 35.6443 53.8962 34.74 52.78 34.74V35.54C53.4541 35.54 53.9994 36.0859 53.9994 36.7594H54.7994ZM52.78 38.7787C53.8962 38.7787 54.7994 37.8745 54.7994 36.7594H53.9994C53.9994 37.4329 53.4541 37.9787 52.78 37.9787V38.7787ZM47.6021 47.0411H13.9436V47.8411H47.6021V47.0411ZM48.8215 45.8218C48.8215 46.4953 48.2762 47.0411 47.6021 47.0411V47.8411C48.7182 47.8411 49.6215 46.9368 49.6215 45.8218H48.8215ZM47.6021 44.6024C48.2762 44.6024 48.8215 45.1483 48.8215 45.8218H49.6215C49.6215 44.7067 48.7182 43.8024 47.6021 43.8024V44.6024ZM13.9436 44.6024H47.6021V43.8024H13.9436V44.6024ZM12.7242 45.8218C12.7242 45.1483 13.2695 44.6024 13.9436 44.6024V43.8024C12.8275 43.8024 11.9242 44.7067 11.9242 45.8218H12.7242ZM13.9436 47.0411C13.2695 47.0411 12.7242 46.4953 12.7242 45.8218H11.9242C11.9242 46.9368 12.8275 47.8411 13.9436 47.8411V47.0411ZM13.9436 56.9035H47.6021V56.1035H13.9436V56.9035ZM11.9242 54.8841C11.9242 55.9992 12.8275 56.9035 13.9436 56.9035V56.1035C13.2695 56.1035 12.7242 55.5576 12.7242 54.8841H11.9242ZM13.9436 52.8648C12.8275 52.8648 11.9242 53.7691 11.9242 54.8841H12.7242C12.7242 54.2106 13.2695 53.6648 13.9436 53.6648V52.8648ZM47.6021 52.8648H13.9436V53.6648H47.6021V52.8648ZM49.6215 54.8841C49.6215 53.7691 48.7182 52.8648 47.6021 52.8648V53.6648C48.2762 53.6648 48.8215 54.2106 48.8215 54.8841H49.6215ZM47.6021 56.9035C48.7182 56.9035 49.6215 55.9992 49.6215 54.8841H48.8215C48.8215 55.5576 48.2762 56.1035 47.6021 56.1035V56.9035ZM47.6021 65.1639H13.9436V65.9639H47.6021V65.1639ZM48.8215 63.9446C48.8215 64.6181 48.2762 65.1639 47.6021 65.1639V65.9639C48.7182 65.9639 49.6215 65.0596 49.6215 63.9446H48.8215ZM47.6021 62.7252C48.2762 62.7252 48.8215 63.2711 48.8215 63.9446H49.6215C49.6215 62.8295 48.7182 61.9252 47.6021 61.9252V62.7252ZM13.9436 62.7252H47.6021V61.9252H13.9436V62.7252ZM12.7242 63.9446C12.7242 63.2711 13.2695 62.7252 13.9436 62.7252V61.9252C12.8275 61.9252 11.9242 62.8295 11.9242 63.9446H12.7242ZM13.9436 65.1639C13.2695 65.1639 12.7242 64.6181 12.7242 63.9446H11.9242C11.9242 65.0596 12.8275 65.9639 13.9436 65.9639V65.1639ZM52.78 70.9876H13.9436V71.7876H52.78V70.9876ZM54.7994 73.0069C54.7994 71.8919 53.8962 70.9876 52.78 70.9876V71.7876C53.4541 71.7876 53.9994 72.3334 53.9994 73.0069H54.7994ZM52.78 75.0263C53.8962 75.0263 54.7994 74.122 54.7994 73.0069H53.9994C53.9994 73.6804 53.4541 74.2263 52.78 74.2263V75.0263ZM13.9436 75.0263H52.78V74.2263H13.9436V75.0263ZM11.9242 73.0069C11.9242 74.122 12.8275 75.0263 13.9436 75.0263V74.2263C13.2695 74.2263 12.7242 73.6804 12.7242 73.0069H11.9242ZM13.9436 70.9876C12.8275 70.9876 11.9242 71.8919 11.9242 73.0069H12.7242C12.7242 72.3334 13.2695 71.7876 13.9436 71.7876V70.9876Z" fill="white" mask="url(#path-2-inside-1_359_12127)"/>
</svg>
