<svg width="80" height="64" viewBox="0 0 80 64" fill="none" xmlns="http://www.w3.org/2000/svg">
<path d="M58 27.5L47 33L52.5 46H43L42.5 42.5H40.5L33 54L43 62.5L44 62V59H57.5L59 58L67 47V45L58 27.5Z" fill="#A4B8C1"/>
<path d="M52.4874 9.17955C53.3212 9.56166 53.8677 10.3683 53.9129 11.2843C53.9147 11.3204 53.9147 11.3566 53.912 11.3927L49.9654 9.47133C50.6727 8.9212 51.6717 8.80558 52.4874 9.17955ZM52.4874 9.17955L52.4562 9.24774C53.2645 9.61819 53.7942 10.4 53.838 11.288L53.838 11.288C53.8397 11.3217 53.8396 11.3547 53.8372 11.3871L53.8372 11.3874L52.9338 24.051L52.9338 24.051L52.9337 24.0534C52.8798 25.4323 51.6436 26.2017 50.492 26.2017C50.4347 26.2017 50.3833 26.1991 50.3359 26.1956L50.3359 26.1948L50.325 26.1956C50.2733 26.1993 50.2014 26.2035 50.1858 26.2035C50.1566 26.2035 50.1148 26.2003 50.0667 26.195L50.0667 26.1945H50.0584H38.2945C38.2133 26.1945 38.1347 26.1829 38.0567 26.1597M52.4874 9.17955L52.4562 9.24773C51.6659 8.88539 50.6966 8.99761 50.0114 9.53053L50.0113 9.53061L49.0285 10.2921L48.9672 10.3396L48.9218 10.2768L42.9427 2.00414L42.9404 2.00103L42.9405 2.00098C42.8902 1.92334 41.6777 0.075 39.4308 0.075H27.9695C24.5519 0.075 23.2877 2.60038 23.264 2.65011L23.2618 2.65482L23.2616 2.65473L15.0098 17.2533L15.0087 17.2552C14.3325 18.3758 14.6926 19.8397 15.8456 20.5371M38.0567 26.1597L24.8332 25.5766C25.3842 25.9082 26.0752 26.0057 26.6823 25.854C27.3101 25.7013 27.8611 25.2966 28.2053 24.7257M38.0567 26.1597L38.0352 26.2316M38.0567 26.1597C38.0567 26.1597 38.0566 26.1597 38.0566 26.1597L38.0352 26.2316M38.0567 26.1597C37.202 25.904 36.569 25.1993 36.4044 24.3208M38.0567 26.1597L50.3303 26.2704C50.2797 26.274 50.2047 26.2785 50.1858 26.2785C50.1524 26.2785 50.1072 26.2749 50.0584 26.2695H38.2945C38.2059 26.2695 38.1201 26.2568 38.0352 26.2316M15.8456 20.5371L15.8443 20.5364L15.8081 20.6021L15.8468 20.5379C15.8464 20.5376 15.846 20.5373 15.8456 20.5371ZM15.8456 20.5371L24.8694 25.511L24.8718 25.5123L24.8718 25.5124C25.4056 25.8335 26.0762 25.9282 26.6641 25.7812L26.6645 25.7811C27.2723 25.6333 27.8066 25.2414 28.1406 24.6876L28.1402 24.6883L28.2053 24.7257M28.2053 24.7257L28.141 24.687L33.8501 14.7644L33.9099 14.6606L33.9772 14.7597L38.249 21.0459L38.2874 21.1024L38.2347 21.1459L37.3242 21.8983L37.3225 21.8997L37.3225 21.8997C36.6212 22.446 36.2442 23.4421 36.4044 24.3208M28.2053 24.7257L33.8736 14.8741L33.8531 14.844L33.9152 14.8018L33.9802 14.8392L33.962 14.8708L38.187 21.088L37.2764 21.8405C36.5529 22.4042 36.1653 23.4286 36.3306 24.3346M38.0352 26.2316C37.1536 25.9678 36.5005 25.2406 36.3306 24.3346M36.3306 24.3346L36.4044 24.3211C36.4044 24.321 36.4044 24.3209 36.4044 24.3208M36.3306 24.3346L36.4044 24.3208C36.4044 24.3208 36.4044 24.3208 36.4044 24.3208M48.6787 12.3401L48.6788 12.3401C48.9001 12.3716 49.1271 12.3127 49.3051 12.1745L49.3051 12.1744L51.0251 10.8402L51.0252 10.8401C51.234 10.6787 51.5248 10.6443 51.7645 10.7546C51.9943 10.8594 52.1498 11.0744 52.1781 11.3228L52.1796 11.3367L52.1783 11.3366L51.2779 23.959C51.2778 23.9594 51.2778 23.9598 51.2778 23.9602C51.2656 24.258 51.0552 24.4053 50.8634 24.4748C50.6731 24.5438 50.4817 24.5451 50.4555 24.5431L50.454 24.5429C50.4121 24.5388 50.3512 24.5343 50.2197 24.5431L50.2065 24.544L50.2066 24.5428C50.1758 24.5395 50.146 24.5379 50.1153 24.5379H38.4552H38.4379L38.4224 24.5303C38.2197 24.4315 38.0743 24.2437 38.032 24.0187L38.0319 24.0183C38.007 23.8813 38.0334 23.7191 38.0911 23.5721C38.1487 23.4252 38.2413 23.2839 38.3594 23.1913L39.9205 21.8984C39.9205 21.8984 39.9205 21.8984 39.9205 21.8984C40.2494 21.6258 40.3181 21.1478 40.0779 20.7941L34.5351 12.6354L34.5351 12.6353C34.3747 12.3985 34.1012 12.2568 33.8209 12.2724L33.8195 12.2725C33.5346 12.2833 33.2754 12.4398 33.1328 12.6875L33.0678 12.6501L33.1328 12.6875L26.712 23.8454L26.7113 23.8465C26.6141 24.0086 26.4545 24.1254 26.2676 24.1716L26.2671 24.1717C26.0824 24.2161 25.8993 24.1946 25.6966 24.0755L16.6761 19.1032L16.6737 19.1019L16.6738 19.1019C16.3306 18.8964 16.2231 18.4526 16.4397 18.0928L24.7257 3.43205C24.7734 3.34073 25.6379 1.73345 27.9704 1.73345H39.4299C40.7553 1.73345 41.5116 2.84645 41.5717 2.9352C41.5718 2.93534 41.5719 2.93547 41.572 2.93559L41.5724 2.93617L48.1254 12.0053L48.6787 12.3401ZM48.6787 12.3401C48.4572 12.3087 48.2584 12.188 48.1256 12.0055L48.0648 12.0494C48.2093 12.2481 48.4261 12.38 48.6682 12.4144M48.6787 12.3401L48.6682 12.4144M48.6682 12.4144C48.9094 12.4487 49.1569 12.3845 49.3511 12.2337L48.6682 12.4144Z" fill="#1B1B1B" stroke="white" stroke-width="0.15"/>
<path d="M43.1275 58.9871L43.1275 58.9866C43.1107 58.6971 43.2147 58.4109 43.413 58.201C43.6115 57.9891 43.8904 57.8694 44.1806 57.8694H56.8396C56.8497 57.8687 56.8619 57.868 56.876 57.8671C57.1603 57.8496 58.2244 57.7839 58.8444 56.8848L43.1275 58.9871ZM43.1275 58.9871L43.2522 60.9998C43.2522 60.9999 43.2522 61 43.2522 61.0002C43.2625 61.1858 43.171 61.3581 43.0122 61.4521C42.8758 61.5326 42.703 61.5418 42.5612 61.4791L34.144 54.0004L34.1443 54.0001L34.1354 53.9933C34.0782 53.9497 34.0505 53.9138 34.0358 53.8876C34.0215 53.8619 34.0153 53.8379 34.0115 53.8098C34.0002 53.7243 34.0196 53.6176 34.0561 53.5143C34.0923 53.4118 34.1378 53.3331 34.1607 53.304C34.2285 53.2228 34.2764 53.1458 34.3109 53.0868C34.3316 53.062 34.3498 53.0365 34.3645 53.016L34.3661 53.0137L34.3661 53.0137L34.3676 53.0115L40.9543 43.4381C41.0814 43.378 41.2419 43.3766 41.3656 43.4307C41.4435 43.4657 41.5327 43.5451 41.6058 43.653C41.6786 43.7605 41.7237 43.8791 41.7301 43.978L41.7301 43.978L41.7304 43.9811L41.9092 46.0604L43.1275 58.9871ZM45.3565 60.8774L45.3012 59.9752H56.8741C57.2718 59.9752 59.3333 59.8865 60.5784 58.0783L60.5784 58.0783L67.0733 48.6377C69.0445 45.7721 67.7279 43.2374 67.6316 43.0663L60.2844 28.0006C59.7116 26.735 58.2158 26.0814 56.8093 26.7201L56.8093 26.72L56.8042 26.7225L47.5917 31.3364C46.9628 31.6249 46.4821 32.1412 46.2416 32.7846C45.997 33.4268 46.0205 34.1529 46.3113 34.7938L46.3113 34.7938L46.3126 34.7965L51.1529 44.9194H43.9261L43.8316 43.8299C43.7732 42.8595 43.1159 41.91 42.2241 41.509L42.2231 41.5086C41.3483 41.123 40.2852 41.2605 39.5412 41.8586C39.4606 41.9232 39.3911 41.9992 39.3335 42.083L32.6808 51.7524C32.5997 51.8467 32.5447 51.935 32.5062 52.0028C32.155 52.4416 31.8353 53.2202 31.9151 54.0127C31.9803 54.6808 32.3116 55.2599 32.8097 55.6302L41.2488 63.1341C41.249 63.1342 41.2491 63.1343 41.2493 63.1345C41.2961 63.1768 41.3461 63.2129 41.3985 63.2448C41.8089 63.4978 42.2787 63.63 42.7615 63.63C43.2313 63.63 43.6924 63.5016 44.094 63.261C44.9279 62.7626 45.4121 61.8506 45.3565 60.878L45.3565 60.8774ZM65.3384 47.445L58.8445 56.8847L41.9092 46.0606C41.9557 46.6075 42.4131 47.0234 42.9584 47.0234H52.8245C53.1865 47.0234 53.5225 46.8382 53.7153 46.5319C53.9095 46.2259 53.9312 45.8424 53.7757 45.5146L53.7755 45.5142L48.2227 33.9018C48.171 33.7858 48.1661 33.6507 48.2132 33.5268L48.2135 33.5261C48.259 33.4044 48.3474 33.3047 48.4996 33.235L48.4996 33.235L48.5042 33.2327L57.7125 28.6218C57.9552 28.5137 58.2541 28.6205 58.378 28.8926L58.3779 28.8926L58.3797 28.8962L65.767 44.0413L65.7673 44.0411C65.8245 44.1525 66.5761 45.6461 65.3384 47.445Z" fill="#1B1B1B" stroke="white" stroke-width="0.3"/>
<path d="M41.3496 63.0229C41.3884 63.0582 41.4309 63.0889 41.4769 63.1169C41.8636 63.3554 42.3062 63.48 42.7615 63.48C43.2041 63.48 43.6386 63.359 44.0171 63.1322C44.803 62.6625 45.2591 61.8035 45.2068 60.8866L41.3496 63.0229ZM41.3496 63.0229L32.9044 55.5136C32.4383 55.1695 32.1258 54.6275 32.0643 53.9979C31.9884 53.2445 32.2974 52.4983 32.6307 52.0873C32.6677 52.0214 32.7201 51.9356 32.7996 51.8443L39.4571 42.168M41.3496 63.0229L39.4571 42.168M39.4571 42.168C39.5068 42.0957 39.5664 42.0307 39.6351 41.9755L39.4571 42.168ZM59.0297 57.0123L59.0297 57.0124C58.3438 58.0073 57.1708 58.0754 56.8913 58.0917C56.8746 58.0926 56.861 58.0934 56.851 58.0942L56.8451 58.0947V58.0944H44.1806C43.9518 58.0944 43.7323 58.189 43.5768 58.3552L43.5766 58.3555C43.4211 58.5201 43.3389 58.7455 43.3521 58.9732C43.3521 58.9733 43.3521 58.9734 43.3521 58.9735L43.4768 60.9867L43.4768 60.9872C43.4919 61.256 43.3588 61.5085 43.1266 61.6458L43.1266 61.6458C42.9198 61.7679 42.6581 61.7781 42.4447 61.6729L42.4356 61.6684L42.428 61.6617L33.9966 54.1705C33.9208 54.1122 33.8713 54.0545 33.8394 53.9973C33.8069 53.9392 33.7947 53.8855 33.7885 53.84L33.7885 53.8397C33.7705 53.7043 33.8017 53.5589 33.8439 53.4394C33.8861 53.32 33.9429 53.216 33.9858 53.1624L33.9869 53.1611L33.9869 53.1611C34.0479 53.0883 34.0905 53.0185 34.1231 52.9621L34.1268 52.9557L34.1317 52.9501C34.1485 52.931 34.1643 52.9091 34.1826 52.8835C34.1828 52.8833 34.1829 52.8831 34.183 52.8829L40.79 43.2799L40.7998 43.2657L40.8148 43.2572C41.0095 43.1467 41.2602 43.1388 41.4565 43.2248L41.457 43.225C41.5846 43.2821 41.7035 43.3961 41.7921 43.5268C41.8807 43.6576 41.9448 43.8138 41.9546 43.9626C41.9546 43.9629 41.9546 43.9631 41.9547 43.9634L42.1334 46.0413L42.1334 46.0414C42.1698 46.4711 42.5292 46.7984 42.9584 46.7984H52.8245C53.1095 46.7984 53.3736 46.6526 53.5252 46.4116L53.5253 46.4113C53.6776 46.1714 53.6952 45.8699 53.5724 45.611L48.0189 33.9972L48.0181 33.9957L48.0181 33.9957C47.9414 33.8249 47.9344 33.6273 48.0028 33.447M59.0297 57.0123L48.073 33.4735M59.0297 57.0123L65.5237 47.5726C66.199 46.5912 66.3144 45.6896 66.258 45.0293C66.2298 44.6997 66.1589 44.431 66.0943 44.243C66.0303 44.0566 65.9698 43.9436 65.9708 43.946L65.9709 43.9459L65.9693 43.9426L58.5827 28.7993L58.5145 28.8304L58.5819 28.7975L58.5823 28.7984M59.0297 57.0123L58.5823 28.7984M48.0028 33.447C48.0028 33.447 48.0029 33.4469 48.0029 33.4469L48.073 33.4735M48.0028 33.447C48.0028 33.4471 48.0028 33.4471 48.0028 33.4472L48.073 33.4735M48.0028 33.447C48.0707 33.2657 48.2036 33.1235 48.4046 33.031M48.073 33.4735C48.1335 33.3118 48.2519 33.1835 48.437 33.0986M48.4046 33.031L48.4035 33.0315L48.437 33.0986M48.4046 33.031L57.6146 28.4192L57.6173 28.4179L57.6173 28.4179C57.9778 28.2549 58.4085 28.418 58.5823 28.7984M48.4046 33.031C48.405 33.0308 48.4054 33.0306 48.4058 33.0304L48.437 33.0986M48.437 33.0986L58.5823 28.7984M34.0444 53.2093C33.9721 53.2996 33.8312 53.5923 33.8628 53.8298L34.0444 53.2093ZM34.0444 53.2093C34.1094 53.1316 34.1546 53.0575 34.188 52.9997L34.0444 53.2093ZM67.4315 43.1692L67.4312 43.1693L67.4347 43.1751C67.4347 43.1751 67.4348 43.1752 67.435 43.1755C67.4352 43.1759 67.4356 43.1766 67.4362 43.1777L67.4401 43.1847C67.4412 43.1866 67.4423 43.1888 67.4436 43.1912C67.4463 43.1963 67.4496 43.2024 67.4534 43.2097C67.4644 43.231 67.4795 43.2613 67.4976 43.3002C67.5339 43.3779 67.582 43.4895 67.6328 43.6311C67.7345 43.9142 67.847 44.3163 67.898 44.8045C68 45.78 67.857 47.1014 66.8879 48.5101L60.3931 57.9507C60.393 57.9507 60.393 57.9507 60.393 57.9507C59.2148 59.6617 57.2565 59.7502 56.8741 59.7502H45.1417H45.062L45.0669 59.8298L45.1319 60.8909C45.1319 60.8909 45.1319 60.891 45.1319 60.8911C45.1826 61.78 44.7405 62.6125 43.9786 63.0679L43.9785 63.0679C43.6116 63.2877 43.1904 63.405 42.7615 63.405C42.32 63.405 41.891 63.2842 41.5163 63.0531L41.5159 63.0528C41.4732 63.0268 41.4347 62.9989 41.4 62.9674L41.3994 62.9669L32.9543 55.4576L32.9545 55.4574L32.949 55.4533C32.5004 55.1221 32.1984 54.5996 32.139 53.9906L32.139 53.9903C32.0653 53.2596 32.3662 52.5326 32.689 52.1346L32.6898 52.1353L32.6961 52.1241C32.7318 52.0605 32.7813 51.9795 32.8562 51.8936L32.8565 51.8939L32.8614 51.8868L39.5189 42.2105L39.5189 42.2104C39.5646 42.144 39.6193 42.0844 39.682 42.034L39.6821 42.034C40.3601 41.489 41.3337 41.3626 42.132 41.7143C42.9485 42.0815 43.5545 42.9584 43.6071 43.8453L43.6072 43.8474L43.7138 45.0759L43.7198 45.1444H43.7885H51.3909H51.5099L51.4586 45.0371L46.5162 34.7008C46.5161 34.7006 46.516 34.7004 46.5159 34.7001C46.2497 34.113 46.229 33.4493 46.4521 32.8643L46.4522 32.8638C46.672 32.2755 47.1113 31.8036 47.6878 31.5399L47.6878 31.54L47.6902 31.5388L56.9036 26.9244C58.1929 26.3397 59.5576 26.9378 60.0802 28.0953L60.0802 28.0953L60.0812 28.0973L67.4315 43.1692Z" fill="#1B1B1B" stroke="white" stroke-width="0.15"/>
<path d="M29.2396 46.376L29.2393 46.3757C28.819 45.9152 28.2172 45.6337 27.5544 45.6079H16.1144H15.9942L16.047 45.5L19.4859 38.4712L19.5166 38.4086L19.5812 38.4346L20.7167 38.8898L20.7188 38.8907C21.5111 39.237 22.6086 39.0835 23.2873 38.5336C23.9765 37.9669 24.2906 37.073 24.1059 36.2027C24.0918 36.1368 24.0695 36.0731 24.0396 36.0114L29.2396 46.376ZM29.2396 46.376C29.6678 46.8401 29.8911 47.4458 29.8666 48.081L29.8665 48.081V48.0839L29.8674 58.3829C29.8105 59.6978 28.7536 60.697 27.4619 60.697C27.4491 60.697 27.3713 60.6952 27.3591 60.6944L27.3591 60.6942H27.3544L10.6013 60.6951C10.4311 60.6872 7.67508 60.5147 6.06476 57.5734L0.563531 47.5213L0.563507 47.5212C-0.516437 45.5511 0.52501 43.6001 0.569056 43.5191L0.569087 43.5191L0.570118 43.5171L5.82926 33.0945L5.86516 33.0234L5.79197 32.9919L4.81484 32.571C4.81481 32.571 4.81478 32.571 4.81475 32.571C3.9957 32.2144 3.45218 31.4448 3.39002 30.5623L3.39001 30.5623C3.32697 29.677 3.75758 28.8366 4.51402 28.3707C4.56432 28.3405 4.61756 28.3148 4.67015 28.2959C4.67018 28.2959 4.67022 28.2959 4.67025 28.2959L15.8162 24.3159L15.8163 24.3162L15.8228 24.3132C16.1261 24.1712 16.4395 24.0989 16.7539 24.0989C17.2807 24.0989 17.751 24.3062 18.1268 24.5955C18.5032 24.8853 18.7806 25.2543 18.9211 25.5694L18.92 25.5699L18.9278 25.5812C18.9715 25.645 19.0281 25.734 19.071 25.8502L19.0707 25.8504L19.074 25.8572L24.0395 36.0113L29.2396 46.376ZM27.461 59.0376H27.459L27.3923 59.0358H27.3914L10.6502 59.0376H10.6449L10.645 59.0374C10.5571 59.0313 8.66852 58.88 7.5167 56.7755L2.01549 46.7225C1.69589 46.1394 1.69203 45.5466 1.77128 45.094C1.84998 44.6444 2.01138 44.3281 2.03364 44.2861C2.03377 44.2859 2.03391 44.2856 2.03403 44.2854L7.73775 32.9818L7.73785 32.9816C7.84132 32.778 7.85539 32.5404 7.77675 32.326C7.69793 32.1111 7.53546 31.938 7.32608 31.8478L5.47158 31.0493L5.47122 31.0491C5.22476 30.9415 5.05901 30.7096 5.03981 30.4429M27.461 59.0376L16.7512 25.8288C16.688 25.8288 16.6184 25.8477 16.5398 25.8866L16.5078 25.8188C16.5076 25.8189 16.5074 25.8189 16.5072 25.819C16.4751 25.8342 16.4467 25.8471 16.4174 25.8574L16.4171 25.8575L5.33329 29.8149L5.32192 29.819L5.3124 29.8264C5.12474 29.9727 5.02174 30.202 5.03981 30.4429M27.461 59.0376C27.8548 59.0376 28.1939 58.7307 28.2071 58.3473L28.2072 58.3473V58.3447L28.2063 48.0493C28.2157 47.8231 28.1483 47.6402 28.0157 47.4965L28.0155 47.4963C27.8878 47.3585 27.7094 47.2736 27.5202 47.2655L27.5202 47.2655M27.461 59.0376L27.5202 47.2655M5.03981 30.4429C5.03982 30.443 5.03982 30.4431 5.03983 30.4431L5.11462 30.4375L5.03981 30.4429C5.03981 30.4429 5.03981 30.4429 5.03981 30.4429ZM27.5202 47.2655H27.517M27.5202 47.2655H27.517M27.517 47.2655L14.6636 47.2673C14.3772 47.2673 14.112 47.1191 13.9603 46.8762C13.8088 46.6336 13.7938 46.3305 13.9189 46.0735L27.517 47.2655ZM22.4878 36.6167L17.5571 26.5303L13.919 46.0734L18.3622 36.9919C18.3622 36.9918 18.3623 36.9917 18.3624 36.9915C18.5546 36.6043 19.0126 36.4292 19.4155 36.5866C19.4156 36.5866 19.4157 36.5867 19.4158 36.5867L21.3526 37.3611C21.506 37.4284 21.6768 37.4406 21.8319 37.4175C21.987 37.3943 22.1328 37.3349 22.2355 37.2517L22.2363 37.2511C22.4163 37.1013 22.5134 36.8754 22.4952 36.6438L22.4941 36.6295L22.4878 36.6167Z" fill="#1B1B1B" stroke="white" stroke-width="0.15"/>
</svg>
